<?xml version="1.0" encoding="utf-8"?>
<!-- Improved LinkedIn circular icon (48x48) -->
<svg xmlns="http://www.w3.org/2000/svg" viewBox="0 0 48 48" width="48" height="48" aria-hidden="true">
  <defs>
    <filter id="shadow" x="-50%" y="-50%" width="200%" height="200%">
      <feOffset result="offOut" in="SourceAlpha" dx="0" dy="2"/>
      <feGaussianBlur result="blurOut" in="offOut" stdDeviation="3"/>
      <feBlend in="SourceGraphic" in2="blurOut" mode="normal"/>
    </filter>
  </defs>
  <rect width="48" height="48" rx="10" fill="#0A66C2" filter="url(#shadow)" />
  <g transform="translate(6,8) scale(0.75)">
    <path fill="#fff" d="M8 12h3v12H8zM9.5 8.5a1.8 1.8 0 1 0 0-3.601 1.8 1.8 0 0 0 0 3.601zM15 12h2.2v1.6h.03c.3-.6 1.04-1.6 2.64-1.6 2.82 0 3.34 1.86 3.34 4.28V24H21v-6.9c0-1.65-.03-3.77-2.3-3.77-2.3 0-2.66 1.8-2.66 3.66V24H15z" />
  </g>
</svg>
