<?xml version="1.0" encoding="utf-8"?>
<!-- Simple LinkedIn SVG logo (sized to viewBox 0 0 24 24) -->
<svg xmlns="http://www.w3.org/2000/svg" viewBox="0 0 24 24" width="24" height="24" fill="#0A66C2">
  <rect width="24" height="24" rx="2" fill="#0A66C2" />
  <path fill="#fff" d="M6.94 8.94h2.24V18H6.94zM8.06 6.96a1.3 1.3 0 1 0 .001-2.601 1.3 1.3 0 0 0-.001 2.601zM12.1 8.94h2.14v1.24h.03c.3-.56 1.03-1.14 2.12-1.14 2.27 0 2.69 1.5 2.69 3.44V18h-2.24v-4.03c0-.96-.02-2.19-1.34-2.19-1.34 0-1.55 1.05-1.55 2.11V18h-2.31z"/>
</svg>
